<?xml version="1.0" encoding="UTF-8"?>
<svg width="1000px" height="1000px" viewBox="0 0 1000 1000" version="1.1" xmlns="http://www.w3.org/2000/svg" xmlns:xlink="http://www.w3.org/1999/xlink">
    <!-- Generator: Sketch 51.3 (57544) - http://www.bohemiancoding.com/sketch -->
    <title>logo avatar</title>
    <desc>Created with Sketch.</desc>
    <defs></defs>
    <g id="logo-avatar" stroke="none" stroke-width="1" fill="none" fill-rule="evenodd">
        <g id="3-x-3-diags" transform="translate(269.000000, 213.000000)" fill-rule="nonzero">
            <path d="M24.953125,289.765625 L225.683594,490.496094" id="Path-4" stroke="#BCEDC4" stroke-width="40" stroke-linecap="round" stroke-linejoin="round"></path>
            <path d="M24.953125,88.765625 L225.683594,289.496094" id="Path-4" stroke="#BCEDC4" stroke-width="40" stroke-linecap="round" stroke-linejoin="round" transform="translate(125.318359, 189.130859) scale(-1, 1) translate(-125.318359, -189.130859) "></path>
            <path d="M224.953125,89.765625 L425.683594,290.496094" id="Path-4" stroke="#BCEDC4" stroke-width="40" stroke-linecap="round" stroke-linejoin="round" transform="translate(325.318359, 190.130859) scale(-1, 1) translate(-325.318359, -190.130859) "></path>
            <path d="M224.953125,287.765625 L425.683594,488.496094" id="Path-4" stroke="#BCEDC4" stroke-width="40" stroke-linecap="round" stroke-linejoin="round" transform="translate(325.318359, 388.130859) scale(-1, 1) translate(-325.318359, -388.130859) "></path>
            <circle id="Oval" fill="#42A7B6" cx="25" cy="89" r="25"></circle>
            <circle id="Oval" fill="#42A7B6" cx="225" cy="89" r="25"></circle>
            <circle id="Oval" fill="#42A7B6" cx="425" cy="89" r="25"></circle>
            <circle id="Oval" fill="#42A7B6" cx="25" cy="289" r="25"></circle>
            <circle id="Oval" fill="#42A7B6" cx="225" cy="289" r="25"></circle>
            <circle id="Oval" fill="#42A7B6" cx="425" cy="289" r="25"></circle>
            <circle id="Oval" fill="#42A7B6" cx="425" cy="489" r="25"></circle>
            <circle id="Oval" fill="#42A7B6" cx="25" cy="489" r="25"></circle>
            <rect id="Rectangle" stroke="#2A2DDE" stroke-width="70" fill="#2A2DDE" x="170" y="434" width="110" height="110"></rect>
            <circle id="Oval" fill="#FFFFFF" cx="225" cy="489" r="25"></circle>
            <circle id="Oval-3-Copy" stroke="#FB8143" stroke-width="65" fill="#FFFFFF" cx="425" cy="90" r="57.5"></circle>
        </g>
    </g>
</svg>