<?xml version="1.0" encoding="UTF-8"?>
<svg width="1600px" height="600px" viewBox="0 0 1600 600" version="1.1" xmlns="http://www.w3.org/2000/svg" xmlns:xlink="http://www.w3.org/1999/xlink">
    <!-- Generator: Sketch 51.3 (57544) - http://www.bohemiancoding.com/sketch -->
    <title>Artboard</title>
    <desc>Created with Sketch.</desc>
    <defs></defs>
    <g id="Artboard" stroke="none" stroke-width="1" fill="none" fill-rule="evenodd">
        <rect id="Rectangle" fill-rule="nonzero" x="0" y="0" width="2000" height="1617"></rect>
        <g id="Group" transform="translate(736.000000, -30.000000)" fill="#2A2DDE">
            <path d="M54,178.2 C28.2,178.2 12.2,169.6 4,162.4 C5,152 10.4,143.2 17.8,138.6 C26.2,145.4 39.6,150.8 54.6,150.8 C69,150.8 74.6,146.2 74.6,139.2 C74.6,132.6 71.4,128.8 48.8,123 C27.2,117.8 8.2,109.4 8,83.6 C8,59 27.6,43.2 57.2,43.2 C79.4,43.2 94.2,50.4 101.8,56.4 C101.2,65.6 96.2,75.8 88,80.6 C80.6,75.4 69.4,70.6 55.2,70.6 C43.4,70.6 37,75 37,81 C37,87.4 39.8,90.2 62.8,95.8 C86.8,101.8 103.2,112 103.6,135 C104.2,162.8 84.8,178.2 54,178.2 Z M216.633333,121 C216.633333,125.8 216.433333,130.2 215.633333,135 L152.433333,135 C154.233333,148.4 161.633333,154.4 175.833333,154.4 C187.833333,154.4 196.433333,149.6 203.833333,144.8 C210.033333,149.6 213.833333,157.6 214.633333,165 C206.233333,171.4 193.233333,178.4 172.633333,178.4 C143.233333,178.4 122.033333,160.2 122.033333,128.4 C122.033333,98.4 143.233333,77.4 171.633333,77.4 C198.433333,77.4 216.633333,94.4 216.633333,121 Z M152.433333,118.2 L188.433333,118.2 C188.433333,109 184.033333,100.6 171.833333,100 C160.433333,100 153.833333,107.4 152.433333,118.2 Z M281.066666,77 C290.066666,77 297.466666,78 303.066666,79.8 C302.866666,89.6 300.066666,98.8 294.666666,105.6 C291.066666,104.6 287.466666,104.2 283.266666,104.2 C277.066666,104.2 271.866666,105.4 268.666666,107 L268.666666,175 C263.866666,175.8 258.666666,176.2 253.666666,176.2 C248.666666,176.2 243.866666,175.8 238.866666,175 L238.866666,91.6 C245.466666,85.6 260.266666,77 281.066666,77 Z M393.099999,79.6 C400.299999,79.6 407.699999,80.6 412.699999,81.8 C404.099999,118.6 394.099999,146.8 376.899999,175 C372.099999,176 367.099999,176.4 362.299999,176.4 C357.299999,176.4 352.499999,176 347.499999,175 C328.499999,145.6 319.299999,117.8 311.299999,81.8 C315.299999,80.8 324.499999,79.6 332.699999,79.6 C336.299999,79.6 340.499999,79.8 343.699999,80.2 C349.099999,107.6 356.699999,133.2 361.499999,145.4 C361.899999,146.8 362.299999,148.2 362.699999,150 C363.099999,148.2 363.499999,146.8 363.899999,145.4 C369.299999,132 376.099999,107.6 381.499999,80.2 C384.899999,79.8 389.099999,79.6 393.099999,79.6 Z M445.933332,67.8 C436.133332,67.8 427.933332,59.6 427.933332,49.8 C427.933332,40 435.933332,32 445.933332,32 C455.733332,32 463.933332,40 463.933332,49.8 C463.933332,59.6 455.733332,67.8 445.933332,67.8 Z M445.733332,176.2 C440.933332,176.2 435.933332,175.8 430.933332,175 L430.933332,80 C435.733332,79.2 440.733332,78.8 445.733332,78.8 C450.533332,78.8 455.533332,79.2 460.733332,80 L460.733332,175 C455.933332,175.8 450.933332,176.2 445.733332,176.2 Z M535.166665,178.4 C502.966665,178.4 482.966665,159.8 482.966665,127.8 C482.966665,96.6 504.966665,76.8 534.366665,76.8 C548.966665,76.8 561.766665,82.4 567.366665,87.4 C565.566665,95.4 559.366665,103.8 551.966665,108.4 C547.966665,104.8 542.366665,101.8 535.166665,101.8 C520.566665,101.8 512.966665,112.8 512.966665,127.4 C512.966665,141.6 519.966665,153.4 535.366665,153.4 C544.566665,153.4 549.566665,150.2 553.766665,146.4 C561.166665,150 566.566665,157 568.966665,166 C562.166665,172.2 550.566665,178.4 535.166665,178.4 Z M675.399998,121 C675.399998,125.8 675.199998,130.2 674.399998,135 L611.199998,135 C612.999998,148.4 620.399998,154.4 634.599998,154.4 C646.599998,154.4 655.199998,149.6 662.599998,144.8 C668.799998,149.6 672.599998,157.6 673.399998,165 C664.999998,171.4 651.999998,178.4 631.399998,178.4 C601.999998,178.4 580.799998,160.2 580.799998,128.4 C580.799998,98.4 601.999998,77.4 630.399998,77.4 C657.199998,77.4 675.399998,94.4 675.399998,121 Z M611.199998,118.2 L647.199998,118.2 C647.199998,109 642.799998,100.6 630.599998,100 C619.199998,100 612.599998,107.4 611.199998,118.2 Z M130.4,245.6 C135.4,245.6 140.2,246 145.6,247 L145.6,375 C140.6,375.8 136.4,376.2 132,376.2 C127.4,376.2 123.4,375.8 118,375 L118,313 L119,294.2 L114,308.8 L92,364.2 C87.4,364.8 83.4,365 79.6,365 C76,365 72,364.8 67,364.2 L43.8,308.6 L39.2,296.4 L40,313 L40,375 C35.2,375.8 30.2,376.2 26,376.2 C21.4,376.2 17.6,375.8 12.4,375 L12.4,247.2 C16.2,246.2 21,245.6 27.4,245.6 C32.6,245.6 38,246 43.6,246.8 L78.2,326 L80.6,332.4 L82.6,326 L114.6,246.8 C120.4,246 123.8,245.6 130.4,245.6 Z M264.233333,321 C264.233333,325.8 264.033333,330.2 263.233333,335 L200.033333,335 C201.833333,348.4 209.233333,354.4 223.433333,354.4 C235.433333,354.4 244.033333,349.6 251.433333,344.8 C257.633333,349.6 261.433333,357.6 262.233333,365 C253.833333,371.4 240.833333,378.4 220.233333,378.4 C190.833333,378.4 169.633333,360.2 169.633333,328.4 C169.633333,298.4 190.833333,277.4 219.233333,277.4 C246.033333,277.4 264.233333,294.4 264.233333,321 Z M200.033333,318.2 L236.033333,318.2 C236.033333,309 231.633333,300.6 219.433333,300 C208.033333,300 201.433333,307.4 200.033333,318.2 Z M323.266666,378.4 C301.866666,378.4 287.466666,371.6 281.266666,366.4 C282.866666,357 287.266666,350 293.066666,346.4 C300.066666,350.8 309.866666,356 324.266666,356 C333.466666,356 336.666666,352.6 336.666666,348.4 C336.666666,343.4 331.666666,340.8 316.066666,338 C300.466666,334.8 284.066666,329.2 284.066666,308.2 C284.066666,288.6 302.066666,277.4 325.866666,277.4 C345.666666,277.4 357.866666,282 364.466666,286.2 C363.266666,295.8 359.466666,302.8 354.066666,307 C347.666666,303.4 337.066666,300 326.266666,300 C316.866666,300 312.466666,302 312.466666,306.8 C312.466666,311.6 316.666666,313.4 331.666666,316.2 C350.466666,319.4 366.266666,325.6 366.266666,346.2 C366.266666,366 351.066666,378.4 323.266666,378.4 Z M439.099999,276.8 C467.499999,276.8 482.299999,293.4 482.299999,314.6 L482.299999,375 C477.299999,375.8 472.299999,376.2 467.299999,376.2 C462.299999,376.2 457.499999,375.8 452.499999,375 L452.499999,322.2 C452.499999,310.4 447.099999,303.8 434.899999,303.8 C428.699999,303.8 422.899999,305.8 418.699999,308.2 L418.699999,375 C413.899999,375.8 408.899999,376.2 403.899999,376.2 C399.099999,376.2 394.099999,375.8 388.699999,375 L388.699999,244 C393.499999,243.2 398.499999,242.8 403.499999,242.8 C408.299999,242.8 413.299999,243.2 418.699999,244 L418.699999,280.8 C424.499999,278.4 431.299999,276.8 439.099999,276.8 Z M27.6,576.2 C22.6,576.2 17.6,575.8 12.4,575 L12.4,446.8 C17.2,445.8 22,445.6 27,445.6 C32,445.6 36.8,445.8 42.2,446.8 L42.2,575 C37.4,575.8 32.6,576.2 27.6,576.2 Z M119.433333,476.8 C151.033333,476.8 165.233333,494 165.233333,517.4 L165.233333,575 C160.233333,575.8 155.233333,576.2 150.233333,576.2 C145.233333,576.2 140.233333,575.8 135.233333,575 L135.233333,522.2 C135.233333,508.6 127.833333,503.8 117.233333,503.8 C110.233333,503.8 104.633333,505.8 101.233333,507.8 L101.233333,575 C96.233333,575.8 91.233333,576.2 86.233333,576.2 C81.233333,576.2 76.433333,575.8 71.433333,575 L71.433333,492.6 C78.833333,486 95.833333,476.8 119.433333,476.8 Z M256.066666,547 C261.866666,550.4 267.466666,559.4 268.466666,567.4 C261.666666,572.8 252.066666,578 237.666666,578 C215.866666,578 199.466666,568.8 199.466666,545.6 L199.466666,506 L183.266666,506 C182.666666,502.2 182.266666,498 182.266666,493.6 C182.266666,489.6 182.666666,485.6 183.266666,481.6 L199.466666,481.6 L199.466666,456.6 C204.666666,455.8 209.666666,455.4 214.666666,455.4 C219.466666,455.4 224.466666,455.8 229.066666,456.6 L229.066666,481.6 L262.266666,481.6 C263.066666,485.4 263.666666,489.4 263.666666,493.4 C263.666666,497.8 263.066666,501.8 262.266666,506 L229.066666,506 L229.066666,538.2 C229.066666,549 234.066666,552.6 242.866666,552.6 C248.466666,552.6 252.866666,549.8 256.066666,547 Z M375.499999,521 C375.499999,525.8 375.299999,530.2 374.499999,535 L311.299999,535 C313.099999,548.4 320.499999,554.4 334.699999,554.4 C346.699999,554.4 355.299999,549.6 362.699999,544.8 C368.899999,549.6 372.699999,557.6 373.499999,565 C365.099999,571.4 352.099999,578.4 331.499999,578.4 C302.099999,578.4 280.899999,560.2 280.899999,528.4 C280.899999,498.4 302.099999,477.4 330.499999,477.4 C357.299999,477.4 375.499999,494.4 375.499999,521 Z M311.299999,518.2 L347.299999,518.2 C347.299999,509 342.899999,500.6 330.699999,500 C319.299999,500 312.699999,507.4 311.299999,518.2 Z M439.933332,477 C448.933332,477 456.333332,478 461.933332,479.8 C461.733332,489.6 458.933332,498.8 453.533332,505.6 C449.933332,504.6 446.333332,504.2 442.133332,504.2 C435.933332,504.2 430.733332,505.4 427.533332,507 L427.533332,575 C422.733332,575.8 417.533332,576.2 412.533332,576.2 C407.533332,576.2 402.733332,575.8 397.733332,575 L397.733332,491.6 C404.333332,485.6 419.133332,477 439.933332,477 Z M527.166665,441.6 C539.166665,441.6 547.966665,445.2 552.966665,448.6 C552.366665,456.6 546.966665,465.6 541.366665,469.4 C538.166665,467.4 534.366665,466 529.166665,466 C521.366665,466 516.766665,469.6 516.766665,479 L516.766665,482 L537.566665,482 C538.366665,485.8 538.966665,490 538.966665,494.2 C538.966665,498.6 538.366665,502.6 537.566665,506.4 L516.766665,506.4 L516.766665,575 C511.966665,576 507.166665,576.2 502.166665,576.2 C497.166665,576.2 492.166665,576 486.966665,575 L486.966665,506.2 L474.566665,506.2 C473.766665,502.8 473.366665,498.8 473.366665,494.4 C473.366665,490 473.766665,485.8 474.566665,482 L486.966665,482 C487.766665,455 504.366665,441.6 527.166665,441.6 Z M594.799998,477.4 C622.399998,477.4 641.399998,489.4 641.399998,519 L641.399998,568.8 C627.199998,574.6 610.799998,578.2 593.399998,578.2 C566.199998,578.2 550.399998,567.8 550.399998,547 C550.399998,527 567.599998,516.8 591.799998,517 C599.399998,517.2 605.999998,518 611.799998,519.8 L611.799998,516 C611.799998,507.8 606.199998,502 592.199998,502 C580.999998,502 571.399998,506.4 566.399998,510.2 C559.999998,506.6 554.999998,500 553.599998,491.2 C558.999998,486.4 573.999998,477.4 594.799998,477.4 Z M580.199998,545.8 C580.199998,552.8 585.999998,557.4 597.399998,557.4 C602.199998,557.4 606.999998,556.6 611.799998,555.2 L611.799998,537.8 C606.999998,536.4 601.599998,535.6 595.399998,535.6 C585.999998,535.6 580.199998,538.8 580.199998,545.8 Z M713.433331,578.4 C681.233331,578.4 661.233331,559.8 661.233331,527.8 C661.233331,496.6 683.233331,476.8 712.633331,476.8 C727.233331,476.8 740.033331,482.4 745.633331,487.4 C743.833331,495.4 737.633331,503.8 730.233331,508.4 C726.233331,504.8 720.633331,501.8 713.433331,501.8 C698.833331,501.8 691.233331,512.8 691.233331,527.4 C691.233331,541.6 698.233331,553.4 713.633331,553.4 C722.833331,553.4 727.833331,550.2 732.033331,546.4 C739.433331,550 744.833331,557 747.233331,566 C740.433331,572.2 728.833331,578.4 713.433331,578.4 Z M853.666664,521 C853.666664,525.8 853.466664,530.2 852.666664,535 L789.466664,535 C791.266664,548.4 798.666664,554.4 812.866664,554.4 C824.866664,554.4 833.466664,549.6 840.866664,544.8 C847.066664,549.6 850.866664,557.6 851.666664,565 C843.266664,571.4 830.266664,578.4 809.666664,578.4 C780.266664,578.4 759.066664,560.2 759.066664,528.4 C759.066664,498.4 780.266664,477.4 808.666664,477.4 C835.466664,477.4 853.666664,494.4 853.666664,521 Z M789.466664,518.2 L825.466664,518.2 C825.466664,509 821.066664,500.6 808.866664,500 C797.466664,500 790.866664,507.4 789.466664,518.2 Z" id="Service-Mesh-Interfa"></path>
        </g>
        <g id="3-x-3-diags" transform="translate(38.000000, 11.000000)" fill-rule="nonzero">
            <path d="M24.953125,289.765625 L225.683594,490.496094" id="Path-4" stroke="#BCEDC4" stroke-width="40" stroke-linecap="round" stroke-linejoin="round"></path>
            <path d="M24.953125,88.765625 L225.683594,289.496094" id="Path-4" stroke="#BCEDC4" stroke-width="40" stroke-linecap="round" stroke-linejoin="round" transform="translate(125.318359, 189.130859) scale(-1, 1) translate(-125.318359, -189.130859) "></path>
            <path d="M224.953125,89.765625 L425.683594,290.496094" id="Path-4" stroke="#BCEDC4" stroke-width="40" stroke-linecap="round" stroke-linejoin="round" transform="translate(325.318359, 190.130859) scale(-1, 1) translate(-325.318359, -190.130859) "></path>
            <path d="M224.953125,287.765625 L425.683594,488.496094" id="Path-4" stroke="#BCEDC4" stroke-width="40" stroke-linecap="round" stroke-linejoin="round" transform="translate(325.318359, 388.130859) scale(-1, 1) translate(-325.318359, -388.130859) "></path>
            <circle id="Oval" fill="#42A7B6" cx="25" cy="89" r="25"></circle>
            <circle id="Oval" fill="#42A7B6" cx="225" cy="89" r="25"></circle>
            <circle id="Oval" fill="#42A7B6" cx="425" cy="89" r="25"></circle>
            <circle id="Oval" fill="#42A7B6" cx="25" cy="289" r="25"></circle>
            <circle id="Oval" fill="#42A7B6" cx="225" cy="289" r="25"></circle>
            <circle id="Oval" fill="#42A7B6" cx="425" cy="289" r="25"></circle>
            <circle id="Oval" fill="#42A7B6" cx="425" cy="489" r="25"></circle>
            <circle id="Oval" fill="#42A7B6" cx="25" cy="489" r="25"></circle>
            <rect id="Rectangle" stroke="#2A2DDE" stroke-width="70" fill="#2A2DDE" x="170" y="434" width="110" height="110"></rect>
            <circle id="Oval" fill="#FFFFFF" cx="225" cy="489" r="25"></circle>
            <circle id="Oval-3-Copy" stroke="#FB8143" stroke-width="65" fill="#FFFFFF" cx="425" cy="90" r="57.5"></circle>
        </g>
    </g>
</svg>