<?xml version="1.0" encoding="UTF-8"?>
<svg width="1000px" height="1000px" viewBox="0 0 1000 1000" version="1.1" xmlns="http://www.w3.org/2000/svg" xmlns:xlink="http://www.w3.org/1999/xlink">
    <!-- Generator: Sketch 51.3 (57544) - http://www.bohemiancoding.com/sketch -->
    <title>logo full</title>
    <desc>Created with Sketch.</desc>
    <defs></defs>
    <g id="logo-full" stroke="none" stroke-width="1" fill="none" fill-rule="evenodd">
        <g id="3-x-3-diags" transform="translate(262.000000, 130.000000)" fill-rule="nonzero">
            <path d="M24.953125,289.765625 L225.683594,490.496094" id="Path-4" stroke="#BCEDC4" stroke-width="40" stroke-linecap="round" stroke-linejoin="round"></path>
            <path d="M24.953125,88.765625 L225.683594,289.496094" id="Path-4" stroke="#BCEDC4" stroke-width="40" stroke-linecap="round" stroke-linejoin="round" transform="translate(125.318359, 189.130859) scale(-1, 1) translate(-125.318359, -189.130859) "></path>
            <path d="M224.953125,89.765625 L425.683594,290.496094" id="Path-4" stroke="#BCEDC4" stroke-width="40" stroke-linecap="round" stroke-linejoin="round" transform="translate(325.318359, 190.130859) scale(-1, 1) translate(-325.318359, -190.130859) "></path>
            <path d="M224.953125,287.765625 L425.683594,488.496094" id="Path-4" stroke="#BCEDC4" stroke-width="40" stroke-linecap="round" stroke-linejoin="round" transform="translate(325.318359, 388.130859) scale(-1, 1) translate(-325.318359, -388.130859) "></path>
            <circle id="Oval" fill="#42A7B6" cx="25" cy="89" r="25"></circle>
            <circle id="Oval" fill="#42A7B6" cx="225" cy="89" r="25"></circle>
            <circle id="Oval" fill="#42A7B6" cx="425" cy="89" r="25"></circle>
            <circle id="Oval" fill="#42A7B6" cx="25" cy="289" r="25"></circle>
            <circle id="Oval" fill="#42A7B6" cx="225" cy="289" r="25"></circle>
            <circle id="Oval" fill="#42A7B6" cx="425" cy="289" r="25"></circle>
            <circle id="Oval" fill="#42A7B6" cx="425" cy="489" r="25"></circle>
            <circle id="Oval" fill="#42A7B6" cx="25" cy="489" r="25"></circle>
            <rect id="Rectangle" stroke="#2A2DDE" stroke-width="70" fill="#2A2DDE" x="170" y="434" width="110" height="110"></rect>
            <circle id="Oval" fill="#FFFFFF" cx="225" cy="489" r="25"></circle>
            <circle id="Oval-3-Copy" stroke="#FB8143" stroke-width="65" fill="#FFFFFF" cx="425" cy="90" r="57.5"></circle>
        </g>
        <path d="M146.17,861.19 C137.7,861.19 132.66,858.11 130,855.59 C130.49,852.72 132.1,850.55 134.13,849.36 C136.93,851.88 141.13,853.84 146.24,853.84 C152.26,853.84 154.92,851.32 154.92,847.75 C154.92,844.81 153.52,842.64 145.19,840.61 C137.98,838.93 131.4,835.99 131.33,827.1 C131.33,819.33 137.56,814.01 147.08,814.01 C154.5,814.01 159.19,816.25 162.06,818.49 C161.85,820.94 160.31,823.74 158.21,824.93 C155.41,822.9 151.84,821.29 146.8,821.29 C141.97,821.29 139.1,823.6 139.1,826.54 C139.1,829.48 140.5,831.09 148.2,832.98 C156.95,835.15 162.69,838.65 162.76,846.91 C162.83,856.01 156.39,861.19 146.17,861.19 Z M202.534,840.96 C202.534,842.71 202.464,843.83 202.254,845.65 L178.804,845.65 C179.434,851.11 182.794,854.47 188.324,854.47 C193.154,854.47 195.954,852.58 198.124,851.04 C199.874,852.16 201.274,854.4 201.554,856.43 C198.754,858.67 194.414,861.12 187.764,861.12 C177.824,861.12 170.684,854.54 170.684,843.69 C170.684,833.4 177.894,825.98 187.344,825.98 C196.234,825.98 202.534,832.07 202.534,840.96 Z M178.874,840.4 L194.764,840.4 C194.764,836.48 192.734,832.49 187.344,832.42 C182.444,832.42 179.434,835.85 178.874,840.4 Z M225.998,825.98 C228.868,825.98 231.248,826.26 233.348,827.03 C233.348,829.55 232.648,832.07 231.248,833.89 C229.638,833.47 227.958,833.26 226.208,833.26 C223.618,833.26 221.448,833.75 219.978,834.59 L219.978,860.07 C218.718,860.35 217.318,860.42 215.988,860.42 C214.658,860.42 213.328,860.35 211.998,860.07 L211.998,830.74 C214.518,828.5 219.628,825.98 225.998,825.98 Z M265.912,826.75 C267.802,826.75 269.692,827.03 270.952,827.45 C267.942,839.77 263.392,850.9 258.072,860.07 C256.812,860.35 255.482,860.42 254.292,860.42 C253.032,860.42 251.702,860.35 250.372,860.07 C244.282,849.92 240.502,839.63 237.352,827.45 C238.472,827.1 240.782,826.75 242.812,826.75 C243.862,826.75 244.982,826.89 245.892,827.03 C248.412,837.04 251.702,846.21 254.082,851.67 C254.222,852.02 254.362,852.37 254.432,852.72 L254.852,851.67 C257.582,845.37 260.382,837.04 262.832,827.03 C263.742,826.89 264.862,826.75 265.912,826.75 Z M283.076,821.92 C280.206,821.92 277.896,819.68 277.896,816.88 C277.896,814.08 280.206,811.84 283.076,811.84 C285.806,811.84 288.116,814.08 288.116,816.88 C288.116,819.68 285.806,821.92 283.076,821.92 Z M283.076,860.42 C281.816,860.42 280.416,860.35 279.086,860.07 L279.086,826.96 C280.416,826.68 281.746,826.61 283.076,826.61 C284.336,826.61 285.736,826.68 286.996,826.96 L286.996,860.07 C285.736,860.35 284.406,860.42 283.076,860.42 Z M314.38,861.12 C303.81,861.12 296.74,854.68 296.74,843.62 C296.74,832.98 304.3,825.91 314.31,825.91 C319.28,825.91 323.48,827.87 325.51,829.69 C324.95,831.93 323.34,834.1 321.24,835.36 C319.56,833.96 317.39,832.77 314.38,832.77 C307.87,832.77 304.79,837.74 304.79,843.55 C304.79,849.22 307.8,854.26 314.45,854.26 C318.37,854.26 320.4,852.65 321.8,851.46 C323.83,852.51 325.3,854.4 326,856.85 C323.83,858.95 319.63,861.12 314.38,861.12 Z M363.674,840.96 C363.674,842.71 363.604,843.83 363.394,845.65 L339.944,845.65 C340.574,851.11 343.934,854.47 349.464,854.47 C354.294,854.47 357.094,852.58 359.264,851.04 C361.014,852.16 362.414,854.4 362.694,856.43 C359.894,858.67 355.554,861.12 348.904,861.12 C338.964,861.12 331.824,854.54 331.824,843.69 C331.824,833.4 339.034,825.98 348.484,825.98 C357.374,825.98 363.674,832.07 363.674,840.96 Z M340.014,840.4 L355.904,840.4 C355.904,836.48 353.874,832.49 348.484,832.42 C343.584,832.42 340.574,835.85 340.014,840.4 Z M432.862,814.85 C434.262,814.85 435.592,814.99 437.062,815.34 L437.062,860.07 C435.662,860.35 434.542,860.49 433.352,860.49 C432.092,860.49 430.972,860.35 429.502,860.07 L429.502,835.5 L429.852,828.99 L428.662,832.35 L418.442,856.01 C417.112,856.22 415.992,856.29 414.942,856.29 C413.962,856.29 412.912,856.22 411.512,856.01 L400.942,832.21 L399.682,829.06 L399.962,835.5 L399.962,860.07 C398.702,860.35 397.372,860.49 396.252,860.49 C394.992,860.49 393.942,860.35 392.542,860.07 L392.542,815.34 C393.662,815.06 394.992,814.78 396.812,814.78 C398.072,814.78 399.332,814.85 400.662,815.13 L414.522,845.44 L415.362,847.68 L416.062,845.44 L429.082,815.13 C430.342,814.92 431.252,814.85 432.862,814.85 Z M479.356,840.96 C479.356,842.71 479.286,843.83 479.076,845.65 L455.626,845.65 C456.256,851.11 459.616,854.47 465.146,854.47 C469.976,854.47 472.776,852.58 474.946,851.04 C476.696,852.16 478.096,854.4 478.376,856.43 C475.576,858.67 471.236,861.12 464.586,861.12 C454.646,861.12 447.506,854.54 447.506,843.69 C447.506,833.4 454.716,825.98 464.166,825.98 C473.056,825.98 479.356,832.07 479.356,840.96 Z M455.696,840.4 L471.586,840.4 C471.586,836.48 469.556,832.49 464.166,832.42 C459.266,832.42 456.256,835.85 455.696,840.4 Z M500.44,861.19 C493.02,861.19 488.61,858.6 486.72,856.99 C487.35,854.47 488.68,852.58 490.36,851.53 C492.39,853 495.33,854.82 500.58,854.82 C505.27,854.82 506.95,853.07 506.95,850.83 C506.95,848.59 505.06,847.33 499.11,846.42 C493.23,845.51 487.63,843.34 487.63,836.34 C487.63,830.18 493.16,825.98 501.56,825.98 C507.58,825.98 511.85,827.66 514.02,829.2 C513.67,831.65 512.62,833.61 511.01,834.87 C508.7,833.54 505.27,832.35 501.28,832.35 C497.08,832.35 495.26,833.68 495.26,835.78 C495.26,837.95 496.73,839 502.4,839.91 C509.61,841.03 514.86,843.48 514.86,850.06 C514.86,856.99 509.54,861.19 500.44,861.19 Z M540.914,825.91 C550.854,825.91 555.614,832.14 555.614,839.28 L555.614,860.07 C554.284,860.35 552.884,860.42 551.554,860.42 C550.294,860.42 548.964,860.35 547.634,860.07 L547.634,841.66 C547.634,836.83 545.744,833.26 539.654,833.26 C537.064,833.26 534.404,834.1 532.374,835.22 L532.374,860.07 C531.114,860.35 529.784,860.42 528.454,860.42 C527.124,860.42 525.794,860.35 524.394,860.07 L524.394,814.15 C525.724,813.87 527.054,813.8 528.384,813.8 C529.644,813.8 531.044,813.87 532.374,814.15 L532.374,827.87 C534.754,826.75 537.484,825.91 540.914,825.91 Z M590.082,860.49 C588.682,860.49 587.422,860.35 586.022,860.07 L586.022,815.2 C587.352,814.85 588.682,814.71 589.942,814.71 C591.272,814.71 592.602,814.85 593.932,815.2 L593.932,860.07 C592.672,860.35 591.412,860.49 590.082,860.49 Z M622.226,825.91 C632.936,825.91 637.626,832.07 637.626,839.7 L637.626,860.07 C636.296,860.35 634.896,860.42 633.636,860.42 C632.306,860.42 631.046,860.35 629.646,860.07 L629.646,841.59 C629.646,835.5 626.706,833.19 621.596,833.19 C618.516,833.19 615.786,834.1 614.246,835.01 L614.246,860.07 C612.986,860.35 611.586,860.42 610.256,860.42 C608.996,860.42 607.666,860.35 606.336,860.07 L606.336,831.16 C609.276,828.71 615.086,825.91 622.226,825.91 Z M670.05,851.95 C671.73,853.07 673.13,855.31 673.41,857.48 C671.38,859.23 668.02,861.05 663.47,861.05 C656.33,861.05 651.08,857.83 651.08,849.85 L651.08,833.82 L645.41,833.82 C645.2,832.77 645.13,831.72 645.13,830.53 C645.13,829.48 645.2,828.43 645.41,827.38 L651.08,827.38 L651.08,818.56 C652.41,818.28 653.74,818.21 655.07,818.21 C656.4,818.21 657.66,818.28 658.92,818.56 L658.92,827.38 L671.31,827.38 C671.59,828.43 671.66,829.48 671.66,830.53 C671.66,831.65 671.59,832.7 671.31,833.82 L658.92,833.82 L658.92,848.03 C658.92,852.93 661.23,854.19 664.52,854.19 C666.9,854.19 669,852.93 670.05,851.95 Z M710.874,840.96 C710.874,842.71 710.804,843.83 710.594,845.65 L687.144,845.65 C687.774,851.11 691.134,854.47 696.664,854.47 C701.494,854.47 704.294,852.58 706.464,851.04 C708.214,852.16 709.614,854.4 709.894,856.43 C707.094,858.67 702.754,861.12 696.104,861.12 C686.164,861.12 679.024,854.54 679.024,843.69 C679.024,833.4 686.234,825.98 695.684,825.98 C704.574,825.98 710.874,832.07 710.874,840.96 Z M687.214,840.4 L703.104,840.4 C703.104,836.48 701.074,832.49 695.684,832.42 C690.784,832.42 687.774,835.85 687.214,840.4 Z M734.338,825.98 C737.208,825.98 739.588,826.26 741.688,827.03 C741.688,829.55 740.988,832.07 739.588,833.89 C737.978,833.47 736.298,833.26 734.548,833.26 C731.958,833.26 729.788,833.75 728.318,834.59 L728.318,860.07 C727.058,860.35 725.658,860.42 724.328,860.42 C722.998,860.42 721.668,860.35 720.338,860.07 L720.338,830.74 C722.858,828.5 727.968,825.98 734.338,825.98 Z M764.032,813.52 C768.372,813.52 771.452,815.13 772.782,816.32 C772.502,818.49 771.102,820.73 769.352,821.85 C767.952,820.87 766.412,820.17 764.242,820.17 C761.582,820.17 759.412,821.5 759.412,825.49 L759.412,827.45 L767.322,827.45 C767.602,828.5 767.742,829.55 767.742,830.74 C767.742,831.86 767.602,832.84 767.322,833.89 L759.412,833.89 L759.412,860.14 C758.152,860.35 756.822,860.49 755.562,860.49 C754.232,860.49 752.972,860.35 751.572,860.14 L751.572,833.82 L747.092,833.82 C746.882,832.84 746.742,831.86 746.742,830.67 C746.742,829.55 746.882,828.43 747.092,827.38 L751.572,827.38 L751.572,826.61 C751.572,817.65 757.592,813.52 764.032,813.52 Z M787.706,825.98 C796.456,825.98 802.896,829.9 802.896,839.7 L802.896,857.83 C798.976,859.72 793.166,861.12 787.566,861.12 C777.766,861.12 772.936,856.99 772.936,850.34 C772.936,843.48 778.886,839.77 786.936,839.84 C790.086,839.84 792.816,840.26 795.126,841.1 L795.126,839.21 C795.126,835.22 792.466,832.84 787.146,832.84 C783.156,832.84 779.796,834.38 777.906,835.78 C775.946,834.8 774.616,832.98 774.266,830.67 C776.226,828.78 781.266,825.98 787.706,825.98 Z M780.986,849.99 C780.986,853 783.366,855.03 788.266,855.03 C790.786,855.03 793.096,854.61 795.126,853.98 L795.126,846.84 C792.956,845.93 790.366,845.51 787.566,845.51 C783.646,845.51 780.986,846.84 780.986,849.99 Z M829.37,861.12 C818.8,861.12 811.73,854.68 811.73,843.62 C811.73,832.98 819.29,825.91 829.3,825.91 C834.27,825.91 838.47,827.87 840.5,829.69 C839.94,831.93 838.33,834.1 836.23,835.36 C834.55,833.96 832.38,832.77 829.37,832.77 C822.86,832.77 819.78,837.74 819.78,843.55 C819.78,849.22 822.79,854.26 829.44,854.26 C833.36,854.26 835.39,852.65 836.79,851.46 C838.82,852.51 840.29,854.4 840.99,856.85 C838.82,858.95 834.62,861.12 829.37,861.12 Z M878.664,840.96 C878.664,842.71 878.594,843.83 878.384,845.65 L854.934,845.65 C855.564,851.11 858.924,854.47 864.454,854.47 C869.284,854.47 872.084,852.58 874.254,851.04 C876.004,852.16 877.404,854.4 877.684,856.43 C874.884,858.67 870.544,861.12 863.894,861.12 C853.954,861.12 846.814,854.54 846.814,843.69 C846.814,833.4 854.024,825.98 863.474,825.98 C872.364,825.98 878.664,832.07 878.664,840.96 Z M855.004,840.4 L870.894,840.4 C870.894,836.48 868.864,832.49 863.474,832.42 C858.574,832.42 855.564,835.85 855.004,840.4 Z" id="Service-Mesh-Interfa" fill="#48A9A6"></path>
    </g>
</svg>