<?xml version="1.0" encoding="UTF-8"?>
<svg width="3783px" height="1105px" viewBox="0 0 3783 1105" version="1.1" xmlns="http://www.w3.org/2000/svg" xmlns:xlink="http://www.w3.org/1999/xlink">
    <!-- Generator: Sketch 51.3 (57544) - http://www.bohemiancoding.com/sketch -->
    <title>logo full</title>
    <desc>Created with Sketch.</desc>
    <defs></defs>
    <g id="logo-full" stroke="none" stroke-width="1" fill="none" fill-rule="evenodd">
        <g id="3-x-3-diags" transform="translate(302.000000, 230.000000)" fill-rule="nonzero">
            <path d="M24.953125,289.765625 L225.683594,490.496094" id="Path-4" stroke="#BCEDC4" stroke-width="40" stroke-linecap="round" stroke-linejoin="round"></path>
            <path d="M24.953125,88.765625 L225.683594,289.496094" id="Path-4" stroke="#BCEDC4" stroke-width="40" stroke-linecap="round" stroke-linejoin="round" transform="translate(125.318359, 189.130859) scale(-1, 1) translate(-125.318359, -189.130859) "></path>
            <path d="M224.953125,89.765625 L425.683594,290.496094" id="Path-4" stroke="#BCEDC4" stroke-width="40" stroke-linecap="round" stroke-linejoin="round" transform="translate(325.318359, 190.130859) scale(-1, 1) translate(-325.318359, -190.130859) "></path>
            <path d="M224.953125,287.765625 L425.683594,488.496094" id="Path-4" stroke="#BCEDC4" stroke-width="40" stroke-linecap="round" stroke-linejoin="round" transform="translate(325.318359, 388.130859) scale(-1, 1) translate(-325.318359, -388.130859) "></path>
            <circle id="Oval" fill="#42A7B6" cx="25" cy="89" r="25"></circle>
            <circle id="Oval" fill="#42A7B6" cx="225" cy="89" r="25"></circle>
            <circle id="Oval" fill="#42A7B6" cx="425" cy="89" r="25"></circle>
            <circle id="Oval" fill="#42A7B6" cx="25" cy="289" r="25"></circle>
            <circle id="Oval" fill="#42A7B6" cx="225" cy="289" r="25"></circle>
            <circle id="Oval" fill="#42A7B6" cx="425" cy="289" r="25"></circle>
            <circle id="Oval" fill="#42A7B6" cx="425" cy="489" r="25"></circle>
            <circle id="Oval" fill="#42A7B6" cx="25" cy="489" r="25"></circle>
            <rect id="Rectangle" stroke="#2A2DDE" stroke-width="70" fill="#2A2DDE" x="170" y="434" width="110" height="110"></rect>
            <circle id="Oval" fill="#FFFFFF" cx="225" cy="489" r="25"></circle>
            <circle id="Oval-3-Copy" stroke="#FB8143" stroke-width="65" fill="#FFFFFF" cx="425" cy="90" r="57.5"></circle>
        </g>
        <path d="M1050,793.788 C1022.652,793.788 1005.692,784.672 997,777.04 C998.06,766.016 1003.784,756.688 1011.628,751.812 C1020.532,759.02 1034.736,764.744 1050.636,764.744 C1065.9,764.744 1071.836,759.868 1071.836,752.448 C1071.836,745.452 1068.444,741.424 1044.488,735.276 C1021.592,729.764 1001.452,720.86 1001.24,693.512 C1001.24,667.436 1022.016,650.688 1053.392,650.688 C1076.924,650.688 1092.612,658.32 1100.668,664.68 C1100.032,674.432 1094.732,685.244 1086.04,690.332 C1078.196,684.82 1066.324,679.732 1051.272,679.732 C1038.764,679.732 1031.98,684.396 1031.98,690.756 C1031.98,697.54 1034.948,700.508 1059.328,706.444 C1084.768,712.804 1102.152,723.616 1102.576,747.996 C1103.212,777.464 1082.648,793.788 1050,793.788 Z M1228.208,733.156 C1228.208,738.244 1227.996,742.908 1227.148,747.996 L1160.156,747.996 C1162.064,762.2 1169.908,768.56 1184.96,768.56 C1197.68,768.56 1206.796,763.472 1214.64,758.384 C1221.212,763.472 1225.24,771.952 1226.088,779.796 C1217.184,786.58 1203.404,794 1181.568,794 C1150.404,794 1127.932,774.708 1127.932,741 C1127.932,709.2 1150.404,686.94 1180.508,686.94 C1208.916,686.94 1228.208,704.96 1228.208,733.156 Z M1160.156,730.188 L1198.316,730.188 C1198.316,720.436 1193.652,711.532 1180.72,710.896 C1168.636,710.896 1161.64,718.74 1160.156,730.188 Z M1302.324,686.516 C1311.864,686.516 1319.708,687.576 1325.644,689.484 C1325.432,699.872 1322.464,709.624 1316.74,716.832 C1312.924,715.772 1309.108,715.348 1304.656,715.348 C1298.084,715.348 1292.572,716.62 1289.18,718.316 L1289.18,790.396 C1284.092,791.244 1278.58,791.668 1273.28,791.668 C1267.98,791.668 1262.892,791.244 1257.592,790.396 L1257.592,701.992 C1264.588,695.632 1280.276,686.516 1302.324,686.516 Z M1426.896,689.272 C1434.528,689.272 1442.372,690.332 1447.672,691.604 C1438.556,730.612 1427.956,760.504 1409.724,790.396 C1404.636,791.456 1399.336,791.88 1394.248,791.88 C1388.948,791.88 1383.86,791.456 1378.56,790.396 C1358.42,759.232 1348.668,729.764 1340.188,691.604 C1344.428,690.544 1354.18,689.272 1362.872,689.272 C1366.688,689.272 1371.14,689.484 1374.532,689.908 C1380.256,718.952 1388.312,746.088 1393.4,759.02 C1393.824,760.504 1394.248,761.988 1394.672,763.896 C1395.096,761.988 1395.52,760.504 1395.944,759.02 C1401.668,744.816 1408.876,718.952 1414.6,689.908 C1418.204,689.484 1422.656,689.272 1426.896,689.272 Z M1488.716,676.764 C1478.328,676.764 1469.636,668.072 1469.636,657.684 C1469.636,647.296 1478.116,638.816 1488.716,638.816 C1499.104,638.816 1507.796,647.296 1507.796,657.684 C1507.796,668.072 1499.104,676.764 1488.716,676.764 Z M1488.504,791.668 C1483.416,791.668 1478.116,791.244 1472.816,790.396 L1472.816,689.696 C1477.904,688.848 1483.204,688.424 1488.504,688.424 C1493.592,688.424 1498.892,688.848 1504.404,689.696 L1504.404,790.396 C1499.316,791.244 1494.016,791.668 1488.504,791.668 Z M1589.12,794 C1554.988,794 1533.788,774.284 1533.788,740.364 C1533.788,707.292 1557.108,686.304 1588.272,686.304 C1603.748,686.304 1617.316,692.24 1623.252,697.54 C1621.344,706.02 1614.772,714.924 1606.928,719.8 C1602.688,715.984 1596.752,712.804 1589.12,712.804 C1573.644,712.804 1565.588,724.464 1565.588,739.94 C1565.588,754.992 1573.008,767.5 1589.332,767.5 C1599.084,767.5 1604.384,764.108 1608.836,760.08 C1616.68,763.896 1622.404,771.316 1624.948,780.856 C1617.74,787.428 1605.444,794 1589.12,794 Z M1743.584,733.156 C1743.584,738.244 1743.372,742.908 1742.524,747.996 L1675.532,747.996 C1677.44,762.2 1685.284,768.56 1700.336,768.56 C1713.056,768.56 1722.172,763.472 1730.016,758.384 C1736.588,763.472 1740.616,771.952 1741.464,779.796 C1732.56,786.58 1718.78,794 1696.944,794 C1665.78,794 1643.308,774.708 1643.308,741 C1643.308,709.2 1665.78,686.94 1695.884,686.94 C1724.292,686.94 1743.584,704.96 1743.584,733.156 Z M1675.532,730.188 L1713.692,730.188 C1713.692,720.436 1709.028,711.532 1696.096,710.896 C1684.012,710.896 1677.016,718.74 1675.532,730.188 Z M1956.9,653.232 C1962.2,653.232 1967.288,653.656 1973.012,654.716 L1973.012,790.396 C1967.712,791.244 1963.26,791.668 1958.596,791.668 C1953.72,791.668 1949.48,791.244 1943.756,790.396 L1943.756,724.676 L1944.816,704.748 L1939.516,720.224 L1916.196,778.948 C1911.32,779.584 1907.08,779.796 1903.052,779.796 C1899.236,779.796 1894.996,779.584 1889.696,778.948 L1865.104,720.012 L1860.228,707.08 L1861.076,724.676 L1861.076,790.396 C1855.988,791.244 1850.688,791.668 1846.236,791.668 C1841.36,791.668 1837.332,791.244 1831.82,790.396 L1831.82,654.928 C1835.848,653.868 1840.936,653.232 1847.72,653.232 C1853.232,653.232 1858.956,653.656 1864.892,654.504 L1901.568,738.456 L1904.112,745.24 L1906.232,738.456 L1940.152,654.504 C1946.3,653.656 1949.904,653.232 1956.9,653.232 Z M2104.58,733.156 C2104.58,738.244 2104.368,742.908 2103.52,747.996 L2036.528,747.996 C2038.436,762.2 2046.28,768.56 2061.332,768.56 C2074.052,768.56 2083.168,763.472 2091.012,758.384 C2097.584,763.472 2101.612,771.952 2102.46,779.796 C2093.556,786.58 2079.776,794 2057.94,794 C2026.776,794 2004.304,774.708 2004.304,741 C2004.304,709.2 2026.776,686.94 2056.88,686.94 C2085.288,686.94 2104.58,704.96 2104.58,733.156 Z M2036.528,730.188 L2074.688,730.188 C2074.688,720.436 2070.024,711.532 2057.092,710.896 C2045.008,710.896 2038.012,718.74 2036.528,730.188 Z M2172.972,794 C2150.288,794 2135.024,786.792 2128.452,781.28 C2130.148,771.316 2134.812,763.896 2140.96,760.08 C2148.38,764.744 2158.768,770.256 2174.032,770.256 C2183.784,770.256 2187.176,766.652 2187.176,762.2 C2187.176,756.9 2181.876,754.144 2165.34,751.176 C2148.804,747.784 2131.42,741.848 2131.42,719.588 C2131.42,698.812 2150.5,686.94 2175.728,686.94 C2196.716,686.94 2209.648,691.816 2216.644,696.268 C2215.372,706.444 2211.344,713.864 2205.62,718.316 C2198.836,714.5 2187.6,710.896 2176.152,710.896 C2166.188,710.896 2161.524,713.016 2161.524,718.104 C2161.524,723.192 2165.976,725.1 2181.876,728.068 C2201.804,731.46 2218.552,738.032 2218.552,759.868 C2218.552,780.856 2202.44,794 2172.972,794 Z M2301.572,686.304 C2331.676,686.304 2347.364,703.9 2347.364,726.372 L2347.364,790.396 C2342.064,791.244 2336.764,791.668 2331.464,791.668 C2326.164,791.668 2321.076,791.244 2315.776,790.396 L2315.776,734.428 C2315.776,721.92 2310.052,714.924 2297.12,714.924 C2290.548,714.924 2284.4,717.044 2279.948,719.588 L2279.948,790.396 C2274.86,791.244 2269.56,791.668 2264.26,791.668 C2259.172,791.668 2253.872,791.244 2248.148,790.396 L2248.148,651.536 C2253.236,650.688 2258.536,650.264 2263.836,650.264 C2268.924,650.264 2274.224,650.688 2279.948,651.536 L2279.948,690.544 C2286.096,688 2293.304,686.304 2301.572,686.304 Z M2455.316,791.668 C2450.016,791.668 2444.716,791.244 2439.204,790.396 L2439.204,654.504 C2444.292,653.444 2449.38,653.232 2454.68,653.232 C2459.98,653.232 2465.068,653.444 2470.792,654.504 L2470.792,790.396 C2465.704,791.244 2460.616,791.668 2455.316,791.668 Z M2558.476,686.304 C2591.972,686.304 2607.024,704.536 2607.024,729.34 L2607.024,790.396 C2601.724,791.244 2596.424,791.668 2591.124,791.668 C2585.824,791.668 2580.524,791.244 2575.224,790.396 L2575.224,734.428 C2575.224,720.012 2567.38,714.924 2556.144,714.924 C2548.724,714.924 2542.788,717.044 2539.184,719.164 L2539.184,790.396 C2533.884,791.244 2528.584,791.668 2523.284,791.668 C2517.984,791.668 2512.896,791.244 2507.596,790.396 L2507.596,703.052 C2515.44,696.056 2533.46,686.304 2558.476,686.304 Z M2709.124,760.716 C2715.272,764.32 2721.208,773.86 2722.268,782.34 C2715.06,788.064 2704.884,793.576 2689.62,793.576 C2666.512,793.576 2649.128,783.824 2649.128,759.232 L2649.128,717.256 L2631.956,717.256 C2631.32,713.228 2630.896,708.776 2630.896,704.112 C2630.896,699.872 2631.32,695.632 2631.956,691.392 L2649.128,691.392 L2649.128,664.892 C2654.64,664.044 2659.94,663.62 2665.24,663.62 C2670.328,663.62 2675.628,664.044 2680.504,664.892 L2680.504,691.392 L2715.696,691.392 C2716.544,695.42 2717.18,699.66 2717.18,703.9 C2717.18,708.564 2716.544,712.804 2715.696,717.256 L2680.504,717.256 L2680.504,751.388 C2680.504,762.836 2685.804,766.652 2695.132,766.652 C2701.068,766.652 2705.732,763.684 2709.124,760.716 Z M2841.54,733.156 C2841.54,738.244 2841.328,742.908 2840.48,747.996 L2773.488,747.996 C2775.396,762.2 2783.24,768.56 2798.292,768.56 C2811.012,768.56 2820.128,763.472 2827.972,758.384 C2834.544,763.472 2838.572,771.952 2839.42,779.796 C2830.516,786.58 2816.736,794 2794.9,794 C2763.736,794 2741.264,774.708 2741.264,741 C2741.264,709.2 2763.736,686.94 2793.84,686.94 C2822.248,686.94 2841.54,704.96 2841.54,733.156 Z M2773.488,730.188 L2811.648,730.188 C2811.648,720.436 2806.984,711.532 2794.052,710.896 C2781.968,710.896 2774.972,718.74 2773.488,730.188 Z M2915.656,686.516 C2925.196,686.516 2933.04,687.576 2938.976,689.484 C2938.764,699.872 2935.796,709.624 2930.072,716.832 C2926.256,715.772 2922.44,715.348 2917.988,715.348 C2911.416,715.348 2905.904,716.62 2902.512,718.316 L2902.512,790.396 C2897.424,791.244 2891.912,791.668 2886.612,791.668 C2881.312,791.668 2876.224,791.244 2870.924,790.396 L2870.924,701.992 C2877.92,695.632 2893.608,686.516 2915.656,686.516 Z M3013.94,648.992 C3026.66,648.992 3035.988,652.808 3041.288,656.412 C3040.652,664.892 3034.928,674.432 3028.992,678.46 C3025.6,676.34 3021.572,674.856 3016.06,674.856 C3007.792,674.856 3002.916,678.672 3002.916,688.636 L3002.916,691.816 L3024.964,691.816 C3025.812,695.844 3026.448,700.296 3026.448,704.748 C3026.448,709.412 3025.812,713.652 3024.964,717.68 L3002.916,717.68 L3002.916,790.396 C2997.828,791.456 2992.74,791.668 2987.44,791.668 C2982.14,791.668 2976.84,791.456 2971.328,790.396 L2971.328,717.468 L2958.184,717.468 C2957.336,713.864 2956.912,709.624 2956.912,704.96 C2956.912,700.296 2957.336,695.844 2958.184,691.816 L2971.328,691.816 C2972.176,663.196 2989.772,648.992 3013.94,648.992 Z M3091.448,686.94 C3120.704,686.94 3140.844,699.66 3140.844,731.036 L3140.844,783.824 C3125.792,789.972 3108.408,793.788 3089.964,793.788 C3061.132,793.788 3044.384,782.764 3044.384,760.716 C3044.384,739.516 3062.616,728.704 3088.268,728.916 C3096.324,729.128 3103.32,729.976 3109.468,731.884 L3109.468,727.856 C3109.468,719.164 3103.532,713.016 3088.692,713.016 C3076.82,713.016 3066.644,717.68 3061.344,721.708 C3054.56,717.892 3049.26,710.896 3047.776,701.568 C3053.5,696.48 3069.4,686.94 3091.448,686.94 Z M3075.972,759.444 C3075.972,766.864 3082.12,771.74 3094.204,771.74 C3099.292,771.74 3104.38,770.892 3109.468,769.408 L3109.468,750.964 C3104.38,749.48 3098.656,748.632 3092.084,748.632 C3082.12,748.632 3075.972,752.024 3075.972,759.444 Z M3223.016,794 C3188.884,794 3167.684,774.284 3167.684,740.364 C3167.684,707.292 3191.004,686.304 3222.168,686.304 C3237.644,686.304 3251.212,692.24 3257.148,697.54 C3255.24,706.02 3248.668,714.924 3240.824,719.8 C3236.584,715.984 3230.648,712.804 3223.016,712.804 C3207.54,712.804 3199.484,724.464 3199.484,739.94 C3199.484,754.992 3206.904,767.5 3223.228,767.5 C3232.98,767.5 3238.28,764.108 3242.732,760.08 C3250.576,763.896 3256.3,771.316 3258.844,780.856 C3251.636,787.428 3239.34,794 3223.016,794 Z M3380.448,733.156 C3380.448,738.244 3380.236,742.908 3379.388,747.996 L3312.396,747.996 C3314.304,762.2 3322.148,768.56 3337.2,768.56 C3349.92,768.56 3359.036,763.472 3366.88,758.384 C3373.452,763.472 3377.48,771.952 3378.328,779.796 C3369.424,786.58 3355.644,794 3333.808,794 C3302.644,794 3280.172,774.708 3280.172,741 C3280.172,709.2 3302.644,686.94 3332.748,686.94 C3361.156,686.94 3380.448,704.96 3380.448,733.156 Z M3312.396,730.188 L3350.556,730.188 C3350.556,720.436 3345.892,711.532 3332.96,710.896 C3320.876,710.896 3313.88,718.74 3312.396,730.188 Z" id="Service-Mesh-Interfa" fill="#2A2DDE"></path>
    </g>
</svg>